Coordinates
version=1
nRows=8
nColumns=42
inDegrees=yes

Units are S.I. units (second, meters, Newtons, ...)
If the header above contains a line with 'inDegrees', this indicates whether rotational values are in degrees (yes) or radians (no).

endheader
time	pelvis_tilt	pelvis_list	pelvis_rotation	pelvis_tx	pelvis_ty	pelvis_tz	hip_flexion_r	hip_adduction_r	hip_rotation_r	knee_angle_r	knee_adduction_r	knee_angle_r_beta	ankle_angle_r	subtalar_angle_r	mtp_angle_r	hip_flexion_l	hip_adduction_l	hip_rotation_l	knee_angle_l	knee_adduction_l	knee_angle_l_beta	ankle_angle_l	subtalar_angle_l	mtp_angle_l	lumbar_extension	lumbar_bending	lumbar_rotation	arm_flex_r	arm_add_r	arm_rot_r	elbow_flex_r	pro_sup_r	wrist_flex_r	wrist_dev_r	arm_flex_l	arm_add_l	arm_rot_l	elbow_flex_l	pro_sup_l	wrist_flex_l	wrist_dev_l
      3.31000000	      1.47406694	      4.59373639	      4.17410708	      0.67498582	      0.89187674	      0.15759721	     23.74236351	    -14.79406432	    -14.70854651	     70.93005596	     -3.86827157	      1.23796302	      3.95687490	     -4.43424893	     -7.50086852	      4.01132740	      1.00905144	     -9.01259077	     11.15003881	      8.00639882	      0.19460489	     11.85367562	     32.72724793	     -7.50086852	    -18.22362172	     -7.14762670	     -1.46636033	    -16.67139855	     -7.58225273	    -13.33779948	     60.82919450	     90.00000001	      0.00000000	      0.00000000	      0.02660678	    -20.90361224	     18.74387889	     85.46399503	     90.00000001	      0.00000000	      0.00000000
      3.32000000	      1.56469011	      4.38232599	      4.01229749	      0.67924762	      0.89231812	      0.15688756	     24.70873462	    -14.31421403	    -14.42062344	     69.95652310	     -3.88996871	      1.22097166	      5.32874033	     -5.10756328	     -7.50085324	      3.49028879	      0.78699848	     -8.70566612	     10.86352783	      8.20251190	      0.18960433	     11.99316203	     33.11622183	     -7.50085324	    -18.47033183	     -6.76337332	     -1.73069797	    -16.65957440	     -7.40072661	    -13.62718718	     60.77939874	     90.00000001	      0.00000000	      0.00000000	      0.37430854	    -20.94826128	     18.79265681	     84.67266976	     90.00000001	      0.00000000	      0.00000000
      3.33000000	      1.53945075	      4.14204183	      3.83716764	      0.68316455	      0.89262784	      0.15612121	     25.78221117	    -13.83347577	    -14.08634851	     68.65280046	     -3.83115002	      1.19821741	      6.03028544	     -5.00578567	     -7.50083434	      3.18818180	      0.52814552	     -8.74823971	     10.80831805	      8.28196887	      0.18864074	     12.02430458	     33.07353018	     -7.50083434	    -18.60364050	     -6.31896515	     -1.88689909	    -16.69998368	     -7.22070944	    -14.00059266	     60.73589015	     90.00000001	      0.00000000	      0.00000000	      0.87086461	    -20.83296925	     18.77839270	     83.56956150	     90.00000001	      0.00000000	      0.00000000
      3.34000000	      1.40868695	      4.13151956	      3.62751167	      0.68689711	      0.89278193	      0.15543642	     26.92816202	    -13.74120122	    -13.99661200	     67.02717249	     -3.69716400	      1.16984485	      6.15266407	     -4.73525426	     -7.50082167	      3.07444382	      0.55271468	     -8.97498079	     10.92242259	      8.23700765	      0.19063224	     12.04392048	     32.68564209	     -7.50082167	    -18.67854320	     -6.18348440	     -2.13037840	    -16.77267593	     -7.13613164	    -14.09884285	     60.74892927	     90.00000001	      0.00000000	      0.00000000	      1.22628115	    -20.88875325	     18.65193867	     83.24421364	     90.00000001	      0.00000000	      0.00000000
      3.35000000	      1.32980858	      3.79807998	      3.53339369	      0.69082641	      0.89306439	      0.15474059	     27.72926201	    -13.18437183	    -13.70360767	     64.88548590	     -3.20016957	      1.13246537	      6.67078114	     -4.17608917	     -7.50080280	      2.79052112	      0.18026710	     -8.94044409	     10.74587781	      8.34869951	      0.18755095	     12.27639825	     33.12788986	     -7.50080280	    -18.74721555	     -5.61478021	     -2.20757714	    -16.77370968	     -7.19481242	    -14.43022285	     60.56494430	     90.00000001	      0.00000000	      0.00000000	      1.75162858	    -20.57159206	     18.67707185	     81.98112275	     90.00000001	      0.00000000	      0.00000000
      3.36000000	      1.35031012	      3.56182375	      3.62765303	      0.69499042	      0.89362518	      0.15394902	     28.05684457	    -12.91898360	    -13.46094504	     62.30923348	     -2.28643999	      1.08750128	      7.11268872	     -3.25576939	     -7.50077924	      2.46670781	     -0.09226499	     -8.98192448	     10.74159585	      8.40611534	      0.18747621	     12.43728051	     33.56570812	     -7.50077924	    -18.93987020	     -5.17976403	     -2.41219371	    -16.65466450	     -7.25784972	    -14.54634950	     60.14041914	     90.00000001	      0.00000000	      0.00000000	      2.26575133	    -20.34073701	     18.62365795	     81.06056964	     90.00000001	      0.00000000	      0.00000000
      3.37000000	      1.16314399	      3.42860755	      3.65110910	      0.69933059	      0.89387074	      0.15345213	     28.55750482	    -12.70915910	    -13.41496971	     59.46152590	     -1.59476623	      1.03779941	      7.29566137	     -2.61377051	     -7.50076331	      2.40717443	     -0.09729289	     -9.02090354	     10.79796402	      8.14454567	      0.18846002	     12.52798017	     33.39337894	     -7.50076331	    -18.89281534	     -4.90430659	     -2.52161422	    -16.61614228	     -7.59643721	    -14.28009805	     59.77915783	     90.00000001	      0.00000000	      0.00000000	      2.52009877	    -20.29229986	     18.49099092	     80.95327465	     90.00000001	      0.00000000	      0.00000000
      3.38000000	      1.27334342	      3.35557559	      3.51167389	      0.70391552	      0.89425474	      0.15329690	     28.56733643	    -12.45230301	    -13.74854875	     56.16582092	     -1.24042159	      0.98027850	      8.13539057	     -0.44550283	     -7.50071896	      1.88434129	     -0.22961255	     -9.57437086	     10.75370542	      8.17302040	      0.18768757	     12.71089833	     34.39425466	     -7.50071896	    -19.11648947	     -4.79629068	     -2.67828040	    -16.04464439	     -8.72935690	    -11.75789537	     57.78020156	     90.00000001	      0.00000000	      0.00000000	      2.71711995	    -20.09965905	     18.00809337	     80.66868116	     90.00000001	      0.00000000	      0.00000000
